<mxfile host="app.diagrams.net" agent="Mozilla/5.0 (Windows NT 10.0; Win64; x64) AppleWebKit/537.36 (KHTML, like Gecko) Chrome/131.0.0.0 Safari/537.36" version="25.0.1">
  <diagram name="Page-1" id="kipHoJ5GQHMqTzgZgSA0">
    <mxGraphModel dx="794" dy="454" grid="1" gridSize="10" guides="1" tooltips="1" connect="1" arrows="1" fold="1" page="1" pageScale="1" pageWidth="850" pageHeight="1100" math="0" shadow="0">
      <root>
        <mxCell id="0" />
        <mxCell id="1" parent="0" />
        <mxCell id="BJKEFY5EdB84PIPIgooG-1" value="Dirut" style="rounded=0;whiteSpace=wrap;html=1;" vertex="1" parent="1">
          <mxGeometry x="390" y="50" width="160" height="60" as="geometry" />
        </mxCell>
        <mxCell id="BJKEFY5EdB84PIPIgooG-5" value="Data Pengadaan&amp;nbsp;" style="rounded=0;whiteSpace=wrap;html=1;" vertex="1" parent="1">
          <mxGeometry x="410" y="150" width="110" height="60" as="geometry" />
        </mxCell>
        <mxCell id="BJKEFY5EdB84PIPIgooG-14" value="" style="endArrow=classic;html=1;rounded=0;" edge="1" parent="1">
          <mxGeometry width="50" height="50" relative="1" as="geometry">
            <mxPoint x="464.6" y="110" as="sourcePoint" />
            <mxPoint x="464.6" y="150" as="targetPoint" />
          </mxGeometry>
        </mxCell>
        <mxCell id="BJKEFY5EdB84PIPIgooG-53" value="" style="endArrow=none;html=1;rounded=0;edgeStyle=orthogonalEdgeStyle;entryX=0.5;entryY=1;entryDx=0;entryDy=0;exitX=0.005;exitY=0.65;exitDx=0;exitDy=0;exitPerimeter=0;" edge="1" parent="1">
          <mxGeometry width="50" height="50" relative="1" as="geometry">
            <mxPoint x="410.96000000000004" y="289" as="sourcePoint" />
            <mxPoint x="464.96000000000004" y="210" as="targetPoint" />
            <Array as="points">
              <mxPoint x="399.96000000000004" y="289" />
              <mxPoint x="399.96000000000004" y="240" />
              <mxPoint x="464.96000000000004" y="240" />
            </Array>
          </mxGeometry>
        </mxCell>
        <mxCell id="BJKEFY5EdB84PIPIgooG-88" value="Memberi keputusan Proyek Dilakukan atau Tidak&amp;nbsp;" style="rounded=0;whiteSpace=wrap;html=1;" vertex="1" parent="1">
          <mxGeometry x="410" y="250" width="110" height="60" as="geometry" />
        </mxCell>
        <mxCell id="BJKEFY5EdB84PIPIgooG-90" value="" style="endArrow=none;html=1;rounded=0;exitX=0.483;exitY=-0.014;exitDx=0;exitDy=0;exitPerimeter=0;entryX=0.486;entryY=0.999;entryDx=0;entryDy=0;entryPerimeter=0;" edge="1" parent="1" target="BJKEFY5EdB84PIPIgooG-88">
          <mxGeometry width="50" height="50" relative="1" as="geometry">
            <mxPoint x="463.13" y="329.1600000000001" as="sourcePoint" />
            <mxPoint x="510" y="190" as="targetPoint" />
          </mxGeometry>
        </mxCell>
        <mxCell id="BJKEFY5EdB84PIPIgooG-94" value="Tahapan di Data Pengadaan&amp;nbsp;" style="rounded=0;whiteSpace=wrap;html=1;" vertex="1" parent="1">
          <mxGeometry x="410" y="330" width="110" height="60" as="geometry" />
        </mxCell>
        <mxCell id="BJKEFY5EdB84PIPIgooG-95" value="" style="rounded=0;whiteSpace=wrap;html=1;fillColor=none;" vertex="1" parent="1">
          <mxGeometry x="340" y="40" width="250" height="370" as="geometry" />
        </mxCell>
      </root>
    </mxGraphModel>
  </diagram>
</mxfile>
